<mxfile host="Electron" modified="2023-05-04T12:35:00.913Z" agent="Mozilla/5.0 (Windows NT 10.0; Win64; x64) AppleWebKit/537.36 (KHTML, like Gecko) draw.io/21.1.2 Chrome/106.0.5249.199 Electron/21.4.3 Safari/537.36" etag="8e6l_1uL5DHHDr6fStd9" version="21.1.2" type="device">
  <diagram id="aW8BC6xyf7XYzy20FpQa" name="Page-1">
    <mxGraphModel dx="1014" dy="584" grid="1" gridSize="10" guides="1" tooltips="1" connect="1" arrows="1" fold="1" page="1" pageScale="1" pageWidth="827" pageHeight="1169" math="0" shadow="0">
      <root>
        <mxCell id="0" />
        <mxCell id="1" parent="0" />
        <mxCell id="NHBT1jfxM6-19107ixw2-21" value="" style="rounded=0;whiteSpace=wrap;html=1;shadow=0;fontSize=10;strokeColor=none;fillColor=#ABABAB;imageWidth=21;imageHeight=21;absoluteArcSize=1;rotation=38;" parent="1" vertex="1">
          <mxGeometry x="391.28" y="683.38" width="12.39" height="45.93" as="geometry" />
        </mxCell>
        <mxCell id="NHBT1jfxM6-19107ixw2-22" value="" style="rounded=0;whiteSpace=wrap;html=1;shadow=0;fontSize=10;strokeColor=none;fillColor=#ABABAB;imageWidth=21;imageHeight=21;absoluteArcSize=1;rotation=0;" parent="1" vertex="1">
          <mxGeometry x="427.06999999999994" y="687.5799999999999" width="12.39" height="35.49" as="geometry" />
        </mxCell>
        <mxCell id="NHBT1jfxM6-19107ixw2-23" value="" style="rounded=0;whiteSpace=wrap;html=1;shadow=0;labelBackgroundColor=none;fontSize=10;" parent="1" vertex="1">
          <mxGeometry x="346" y="718" width="46" height="32" as="geometry" />
        </mxCell>
        <mxCell id="NHBT1jfxM6-19107ixw2-24" value="" style="rounded=0;whiteSpace=wrap;html=1;shadow=0;fontSize=10;strokeColor=none;fillColor=#ABABAB;imageWidth=21;imageHeight=21;absoluteArcSize=1;rotation=-30;" parent="1" vertex="1">
          <mxGeometry x="458.28" y="686.0699999999999" width="12.39" height="39.42" as="geometry" />
        </mxCell>
        <mxCell id="NHBT1jfxM6-19107ixw2-25" value="" style="rounded=0;whiteSpace=wrap;html=1;shadow=0;labelBackgroundColor=none;fontSize=10;fontColor=#000000;strokeColor=#000000;fillColor=#FFFFFF;" parent="1" vertex="1">
          <mxGeometry x="470" y="718" width="55" height="32" as="geometry" />
        </mxCell>
        <mxCell id="NHBT1jfxM6-19107ixw2-26" value="" style="rounded=0;whiteSpace=wrap;html=1;shadow=0;labelBackgroundColor=none;fontSize=10;fontColor=#000000;strokeColor=#000000;fillColor=#FFFFFF;" parent="1" vertex="1">
          <mxGeometry x="408" y="718" width="46" height="32" as="geometry" />
        </mxCell>
        <mxCell id="NHBT1jfxM6-19107ixw2-27" value="" style="rounded=0;whiteSpace=wrap;html=1;shadow=0;fontSize=10;strokeColor=none;fillColor=#eeeeee;imageWidth=21;imageHeight=21;absoluteArcSize=1;rotation=0;" parent="1" vertex="1">
          <mxGeometry x="426.06999999999994" y="654" width="12.39" height="17.07" as="geometry" />
        </mxCell>
        <mxCell id="NHBT1jfxM6-19107ixw2-28" value="" style="shape=mxgraph.cisco.routers.router;html=1;pointerEvents=1;dashed=0;fillColor=#036897;strokeColor=#ffffff;strokeWidth=2;verticalLabelPosition=bottom;verticalAlign=top;align=center;outlineConnect=0;" parent="1" vertex="1">
          <mxGeometry x="405" y="667.5" width="54" height="31" as="geometry" />
        </mxCell>
        <mxCell id="NHBT1jfxM6-19107ixw2-29" value="" style="endArrow=blockThin;startArrow=blockThin;html=1;fontSize=1;curved=1;strokeWidth=1;endFill=1;startFill=1;entryX=0.462;entryY=-0.049;entryDx=0;entryDy=0;strokeColor=#FF0000;entryPerimeter=0;" parent="1" edge="1">
          <mxGeometry width="50" height="50" relative="1" as="geometry">
            <mxPoint x="396" y="714" as="sourcePoint" />
            <mxPoint x="429.25199999999995" y="714" as="targetPoint" />
            <Array as="points">
              <mxPoint x="424" y="678" />
            </Array>
          </mxGeometry>
        </mxCell>
        <mxCell id="NHBT1jfxM6-19107ixw2-30" value="" style="endArrow=blockThin;startArrow=blockThin;html=1;fontSize=1;curved=1;strokeWidth=1;endFill=1;startFill=1;entryX=0.462;entryY=-0.049;entryDx=0;entryDy=0;strokeColor=#FF0000;entryPerimeter=0;" parent="1" edge="1">
          <mxGeometry width="50" height="50" relative="1" as="geometry">
            <mxPoint x="467.2520000000002" y="714" as="sourcePoint" />
            <mxPoint x="434" y="714" as="targetPoint" />
            <Array as="points">
              <mxPoint x="439.2520000000002" y="678" />
            </Array>
          </mxGeometry>
        </mxCell>
        <mxCell id="NHBT1jfxM6-19107ixw2-31" value="&lt;font style=&quot;font-size: 11px;&quot;&gt;The inbound&lt;br&gt;network bandwidth&lt;/font&gt;" style="text;html=1;strokeColor=none;fillColor=none;align=center;verticalAlign=middle;whiteSpace=wrap;rounded=0;fontSize=8;fontColor=#FF0000;" parent="1" vertex="1">
          <mxGeometry x="478" y="677" width="119" height="30" as="geometry" />
        </mxCell>
        <mxCell id="NHBT1jfxM6-19107ixw2-32" value="" style="endArrow=blockThin;startArrow=blockThin;html=1;fontSize=1;curved=1;strokeWidth=1;endFill=1;startFill=1;entryX=0.462;entryY=-0.049;entryDx=0;entryDy=0;strokeColor=#FF0000;entryPerimeter=0;" parent="1" edge="1">
          <mxGeometry width="50" height="50" relative="1" as="geometry">
            <mxPoint x="387" y="714" as="sourcePoint" />
            <mxPoint x="473.25199999999995" y="714" as="targetPoint" />
            <Array as="points">
              <mxPoint x="436" y="666" />
            </Array>
          </mxGeometry>
        </mxCell>
        <mxCell id="NHBT1jfxM6-19107ixw2-33" value="&lt;font style=&quot;font-size: 11px;&quot;&gt;A client&lt;br&gt;machine&lt;br&gt;&lt;/font&gt;" style="text;html=1;strokeColor=none;fillColor=none;align=center;verticalAlign=middle;whiteSpace=wrap;rounded=0;fontSize=10;" parent="1" vertex="1">
          <mxGeometry x="342" y="721" width="54" height="24" as="geometry" />
        </mxCell>
        <mxCell id="NHBT1jfxM6-19107ixw2-34" value="&lt;font style=&quot;font-size: 11px;&quot;&gt;A peer&lt;br&gt;machine&lt;br&gt;&lt;/font&gt;" style="text;html=1;strokeColor=none;fillColor=none;align=center;verticalAlign=middle;whiteSpace=wrap;rounded=0;fontSize=10;" parent="1" vertex="1">
          <mxGeometry x="404" y="721" width="54" height="24" as="geometry" />
        </mxCell>
        <mxCell id="NHBT1jfxM6-19107ixw2-35" value="&lt;font style=&quot;font-size: 11px;&quot;&gt;An orderer&lt;br&gt;machine&lt;br&gt;&lt;/font&gt;" style="text;html=1;strokeColor=none;fillColor=none;align=center;verticalAlign=middle;whiteSpace=wrap;rounded=0;fontSize=10;" parent="1" vertex="1">
          <mxGeometry x="471" y="721" width="54" height="24" as="geometry" />
        </mxCell>
        <mxCell id="NHBT1jfxM6-19107ixw2-36" value="&lt;font style=&quot;font-size: 11px;&quot; color=&quot;#000000&quot;&gt;A bi-directional non-blocking &lt;br&gt;switch&lt;/font&gt;" style="text;html=1;strokeColor=none;fillColor=none;align=center;verticalAlign=middle;whiteSpace=wrap;rounded=0;fontSize=8;fontColor=#FF0000;" parent="1" vertex="1">
          <mxGeometry x="243" y="670" width="167" height="30" as="geometry" />
        </mxCell>
        <mxCell id="NHBT1jfxM6-19107ixw2-37" value="..." style="text;html=1;strokeColor=none;fillColor=none;align=center;verticalAlign=middle;whiteSpace=wrap;rounded=0;fontSize=8;fontColor=#000000;" parent="1" vertex="1">
          <mxGeometry x="370" y="717" width="60" height="30" as="geometry" />
        </mxCell>
        <mxCell id="NHBT1jfxM6-19107ixw2-38" value="..." style="text;html=1;strokeColor=none;fillColor=none;align=center;verticalAlign=middle;whiteSpace=wrap;rounded=0;fontSize=8;fontColor=#000000;" parent="1" vertex="1">
          <mxGeometry x="432" y="717" width="60" height="30" as="geometry" />
        </mxCell>
      </root>
    </mxGraphModel>
  </diagram>
</mxfile>
